<!-- 1: Pure ※ -->
<svg xmlns="http://www.w3.org/2000/svg" viewBox="0 0 20 20" width="64" height="64">
  <defs>
    <linearGradient id="i1-xgrad" x1="0" y1="0" x2="1" y2="1">
      <stop offset="0%" stop-color="#3994BC"/>
      <stop offset="100%" stop-color="#2D7D9E"/>
    </linearGradient>
  </defs>
  <path d="M5.8 5.8 L14.2 14.2" stroke="url(#i1-xgrad)" stroke-width="2.5" stroke-linecap="round" fill="none"/>
  <path d="M14.2 5.8 L5.8 14.2" stroke="url(#i1-xgrad)" stroke-width="2.5" stroke-linecap="round" fill="none"/>
  <circle cx="10" cy="4.0" r="1.9" fill="#3994BC"/>
  <circle cx="16.0" cy="10" r="1.9" fill="#3994BC"/>
  <circle cx="10" cy="16.0" r="1.9" fill="#2D7D9E"/>
  <circle cx="4.0" cy="10" r="1.9" fill="#2D7D9E"/>
</svg>

<!-- 2: ※ in Circle -->
<svg xmlns="http://www.w3.org/2000/svg" viewBox="0 0 20 20" width="64" height="64">
  <circle cx="10" cy="10" r="7.5" stroke="#2D7D9E" stroke-width="1.4" fill="none" stroke-linecap="round"/>
  <line x1="14.8" y1="4.7" x2="15.8" y2="3.7" stroke="#2D7D9E" stroke-width="1.2" stroke-linecap="round" opacity="0.7"/>
  <line x1="15.0" y1="15.0" x2="16.0" y2="16.0" stroke="#2D7D9E" stroke-width="1.2" stroke-linecap="round" opacity="0.7"/>
  <line x1="4.7" y1="14.8" x2="3.7" y2="15.8" stroke="#2D7D9E" stroke-width="1.2" stroke-linecap="round" opacity="0.7"/>
  <line x1="5.0" y1="5.0" x2="4.0" y2="4.0" stroke="#2D7D9E" stroke-width="1.2" stroke-linecap="round" opacity="0.7"/>
  <path d="M6.2 6.2 L13.8 13.8" stroke="#3994BC" stroke-width="2.0" stroke-linecap="round" fill="none"/>
  <path d="M13.8 6.2 L6.2 13.8" stroke="#3994BC" stroke-width="2.0" stroke-linecap="round" fill="none"/>
  <circle cx="10" cy="2.5" r="1.3" fill="#3994BC"/>
  <circle cx="17.5" cy="10" r="1.3" fill="#3994BC"/>
  <circle cx="10" cy="17.5" r="1.3" fill="#2D7D9E"/>
  <circle cx="2.5" cy="10" r="1.3" fill="#2D7D9E"/>
</svg>

<!-- 3: ※ Pulse -->
<svg xmlns="http://www.w3.org/2000/svg" viewBox="0 0 20 20" width="64" height="64">
  <defs>
    <linearGradient id="i3-ekg" x1="0" y1="0" x2="1" y2="1">
      <stop offset="0%" stop-color="#5BB8DA"/>
      <stop offset="100%" stop-color="#3994BC"/>
    </linearGradient>
  </defs>
  <path d="M15.5 4.5 L4.5 15.5" stroke="#2D7D9E" stroke-width="1.8" stroke-linecap="round" fill="none"/>
  <path d="M4.5 4.5 L7 7 Q7.5 6.5 8 8 L9 9 L7.8 12.2 L12.2 7.8 L11 11 Q12 12.5 12.5 12.5 L15.5 15.5" stroke="url(#i3-ekg)" stroke-width="2.0" stroke-linecap="round" stroke-linejoin="round" fill="none"/>
  <circle cx="10" cy="4.0" r="1.5" fill="#5BB8DA"/>
  <circle cx="16.0" cy="10" r="1.5" fill="#3994BC"/>
  <circle cx="10" cy="16.0" r="1.5" fill="#2D7D9E"/>
  <circle cx="4.0" cy="10" r="1.5" fill="#2D7D9E"/>
</svg>

<!-- 4: ※ Radar -->
<svg xmlns="http://www.w3.org/2000/svg" viewBox="0 0 20 20" width="64" height="64">
  <circle cx="10" cy="10" r="3.5" stroke="#2D7D9E" stroke-width="0.7" fill="none" opacity="0.3"/>
  <circle cx="10" cy="10" r="6" stroke="#2D7D9E" stroke-width="0.7" fill="none" opacity="0.3"/>
  <circle cx="10" cy="10" r="8.5" stroke="#2D7D9E" stroke-width="0.7" fill="none" opacity="0.3"/>
  <path d="M10 10 L10 2 A8 8 0 0 1 15.66 4.34 Z" fill="#3994BC" opacity="0.25"/>
  <line x1="10" y1="10" x2="15.66" y2="4.34" stroke="#3994BC" stroke-width="1.4" stroke-linecap="round" opacity="0.8"/>
  <path d="M5.8 5.8 L14.2 14.2" stroke="#2D7D9E" stroke-width="1.8" stroke-linecap="round" fill="none"/>
  <path d="M14.2 5.8 L5.8 14.2" stroke="#2D7D9E" stroke-width="1.8" stroke-linecap="round" fill="none"/>
  <circle cx="10" cy="4.0" r="1.3" fill="#3994BC"/>
  <circle cx="16.0" cy="10" r="1.3" fill="#3994BC"/>
  <circle cx="10" cy="16.0" r="1.3" fill="#2D7D9E"/>
  <circle cx="4.0" cy="10" r="1.3" fill="#2D7D9E"/>
  <circle cx="13" cy="5" r="0.9" fill="#5BB8DA" opacity="0.8"/>
</svg>

<!-- 5: ※ Tap Point -->
<svg xmlns="http://www.w3.org/2000/svg" viewBox="0 0 20 20" width="64" height="64">
  <line x1="1" y1="7.5" x2="19" y2="7.5" stroke="#2D7D9E" stroke-width="1.4" stroke-linecap="round" opacity="0.5"/>
  <line x1="1" y1="11" x2="19" y2="11" stroke="#2D7D9E" stroke-width="1.4" stroke-linecap="round" opacity="0.5"/>
  <path d="M3 8.4 L4.8 9.25 L3 10.1" stroke="#3994BC" stroke-width="1.2" stroke-linecap="round" stroke-linejoin="round" fill="none" opacity="0.6"/>
  <path d="M7 8.4 L8.8 9.25 L7 10.1" stroke="#3994BC" stroke-width="1.2" stroke-linecap="round" stroke-linejoin="round" fill="none" opacity="0.6"/>
  <path d="M13 8.4 L14.8 9.25 L13 10.1" stroke="#3994BC" stroke-width="1.2" stroke-linecap="round" stroke-linejoin="round" fill="none" opacity="0.6"/>
  <line x1="10" y1="11" x2="10" y2="13" stroke="#3994BC" stroke-width="1.4" stroke-linecap="round"/>
  <circle cx="10" cy="11" r="1.3" fill="#3994BC"/>
  <path d="M7.6 13 L12.4 17.8" stroke="#5BB8DA" stroke-width="1.8" stroke-linecap="round" fill="none"/>
  <path d="M12.4 13 L7.6 17.8" stroke="#5BB8DA" stroke-width="1.8" stroke-linecap="round" fill="none"/>
  <circle cx="10" cy="12.6" r="1.15" fill="#5BB8DA"/>
  <circle cx="12.8" cy="15.4" r="1.15" fill="#5BB8DA"/>
  <circle cx="10" cy="18.2" r="1.15" fill="#5BB8DA"/>
  <circle cx="7.2" cy="15.4" r="1.15" fill="#5BB8DA"/>
</svg>

<!-- 6: ※ Signal -->
<svg xmlns="http://www.w3.org/2000/svg" viewBox="0 0 20 20" width="64" height="64">
  <circle cx="10" cy="5" r="3" fill="#3994BC" opacity="0.12"/>
  <path d="M7.8 3.2 A2.5 2.5 0 0 1 12.2 3.2" stroke="#5BB8DA" stroke-width="1.0" stroke-linecap="round" fill="none" opacity="0.5"/>
  <path d="M6.2 1.8 A4.5 4.5 0 0 1 13.8 1.8" stroke="#5BB8DA" stroke-width="0.9" stroke-linecap="round" fill="none" opacity="0.35"/>
  <path d="M6.5 7.5 L13.5 14.5" stroke="#2D7D9E" stroke-width="2.0" stroke-linecap="round" fill="none"/>
  <path d="M13.5 7.5 L6.5 14.5" stroke="#2D7D9E" stroke-width="2.0" stroke-linecap="round" fill="none"/>
  <circle cx="10" cy="5.0" r="1.8" fill="#5BB8DA"/>
  <circle cx="15.5" cy="11" r="1.0" fill="#2D7D9E" opacity="0.45"/>
  <circle cx="10" cy="17.0" r="1.0" fill="#2D7D9E" opacity="0.45"/>
  <circle cx="4.5" cy="11" r="1.0" fill="#2D7D9E" opacity="0.45"/>
</svg>

<!-- 7: ※ Filter -->
<svg xmlns="http://www.w3.org/2000/svg" viewBox="0 0 20 20" width="64" height="64">
  <defs>
    <linearGradient id="i7-out" x1="0.5" y1="0" x2="0.5" y2="1">
      <stop offset="0%" stop-color="#3994BC"/>
      <stop offset="100%" stop-color="#5BB8DA"/>
    </linearGradient>
  </defs>
  <line x1="3" y1="0.5" x2="8" y2="4.5" stroke="#2D7D9E" stroke-width="1.2" stroke-linecap="round" opacity="0.35"/>
  <line x1="6" y1="0" x2="9" y2="4" stroke="#2D7D9E" stroke-width="1.2" stroke-linecap="round" opacity="0.4"/>
  <line x1="10" y1="0" x2="10" y2="4.5" stroke="#2D7D9E" stroke-width="1.2" stroke-linecap="round" opacity="0.5" stroke-dasharray="1.5 1"/>
  <line x1="14" y1="0" x2="11" y2="4" stroke="#2D7D9E" stroke-width="1.2" stroke-linecap="round" opacity="0.4"/>
  <line x1="17" y1="0.5" x2="12" y2="4.5" stroke="#2D7D9E" stroke-width="1.2" stroke-linecap="round" opacity="0.35"/>
  <path d="M5.5 5.5 L14.5 14.5" stroke="#3994BC" stroke-width="2.0" stroke-linecap="round" fill="none"/>
  <path d="M14.5 5.5 L5.5 14.5" stroke="#3994BC" stroke-width="2.0" stroke-linecap="round" fill="none"/>
  <circle cx="10" cy="4.5" r="1.5" fill="#3994BC"/>
  <circle cx="15.5" cy="10" r="1.5" fill="#3994BC"/>
  <circle cx="10" cy="15.5" r="1.5" fill="#3994BC"/>
  <circle cx="4.5" cy="10" r="1.5" fill="#3994BC"/>
  <line x1="10" y1="15.5" x2="10" y2="19.5" stroke="#3994BC" stroke-width="4" stroke-linecap="round" opacity="0.1"/>
  <line x1="10" y1="15.5" x2="10" y2="19.5" stroke="url(#i7-out)" stroke-width="2.2" stroke-linecap="round" opacity="0.9"/>
</svg>

<!-- 8: ※ Ripple -->
<svg xmlns="http://www.w3.org/2000/svg" viewBox="0 0 20 20" width="64" height="64">
  <circle cx="10" cy="10" r="9.5" stroke="#2D7D9E" stroke-width="0.5" fill="none" opacity="0.2"/>
  <circle cx="10" cy="10" r="7.0" stroke="#2D7D9E" stroke-width="0.7" fill="none" opacity="0.3"/>
  <circle cx="10" cy="10" r="4.5" stroke="#3994BC" stroke-width="0.9" fill="none" opacity="0.45"/>
  <circle cx="10" cy="10" r="2.5" stroke="#3994BC" stroke-width="1.2" fill="none" opacity="0.6"/>
  <path d="M5.8 5.8 L14.2 14.2" stroke="#2D7D9E" stroke-width="2.2" stroke-linecap="round" fill="none"/>
  <path d="M14.2 5.8 L5.8 14.2" stroke="#2D7D9E" stroke-width="2.2" stroke-linecap="round" fill="none"/>
  <circle cx="10" cy="4.0" r="1.6" fill="#3994BC"/>
  <circle cx="16.0" cy="10" r="1.6" fill="#3994BC"/>
  <circle cx="10" cy="16.0" r="1.6" fill="#2D7D9E"/>
  <circle cx="4.0" cy="10" r="1.6" fill="#2D7D9E"/>
</svg>

<!-- 9: ※ Badge -->
<svg xmlns="http://www.w3.org/2000/svg" viewBox="0 0 20 20" width="64" height="64">
  <defs>
    <linearGradient id="i9-bg" x1="0.5" y1="0" x2="0.5" y2="1">
      <stop offset="0%" stop-color="#3994BC"/>
      <stop offset="100%" stop-color="#256D8A"/>
    </linearGradient>
  </defs>
  <rect x="1.5" y="1.5" width="17" height="17" rx="3.8" fill="url(#i9-bg)"/>
  <line x1="5" y1="2.5" x2="15" y2="2.5" stroke="white" stroke-width="0.5" stroke-linecap="round" opacity="0.2"/>
  <path d="M6.2 6.2 L13.8 13.8" stroke="#D0ECF5" stroke-width="1.8" stroke-linecap="round" fill="none"/>
  <path d="M13.8 6.2 L6.2 13.8" stroke="#D0ECF5" stroke-width="1.8" stroke-linecap="round" fill="none"/>
  <circle cx="10" cy="4.5" r="1.15" fill="white" opacity="0.9"/>
  <circle cx="15.5" cy="10" r="1.15" fill="white" opacity="0.9"/>
  <circle cx="10" cy="15.5" r="1.15" fill="white" opacity="0.9"/>
  <circle cx="4.5" cy="10" r="1.15" fill="white" opacity="0.9"/>
</svg>

<!-- 10: ※ Minimal -->
<svg xmlns="http://www.w3.org/2000/svg" viewBox="0 0 20 20" width="64" height="64">
  <path d="M6.0 6.0 L14.0 14.0" stroke="#297AA0" stroke-width="1.6" stroke-linecap="round" fill="none"/>
  <path d="M14.0 6.0 L6.0 14.0" stroke="#297AA0" stroke-width="1.6" stroke-linecap="round" fill="none"/>
  <circle cx="10" cy="4.2" r="0.8" fill="#297AA0"/>
  <circle cx="15.8" cy="10" r="0.8" fill="#297AA0"/>
  <circle cx="10" cy="15.8" r="0.8" fill="#297AA0"/>
  <circle cx="4.2" cy="10" r="0.8" fill="#297AA0"/>
</svg>
